HIERARCHY
ROOT Hips
{
  OFFSET 0 0 0
  CHANNELS 6 Xposition Yposition Zposition Zrotation Yrotation Xrotation
  JOINT LeftThigh
  {
    OFFSET 8.409438 0 -5.917753
    CHANNELS 3 Zrotation Yrotation Xrotation
    JOINT LeftLeg
    {
      OFFSET 0 0 -42.358652
      CHANNELS 3 Zrotation Yrotation Xrotation
      JOINT LeftFoot
      {
        OFFSET 0 0 -39.357303
        CHANNELS 3 Zrotation Yrotation Xrotation
      }
    }
  }
  JOINT RightThigh
  {
    OFFSET -8.409438 0 -5.917753
    CHANNELS 3 Zrotation Yrotation Xrotation
    JOINT RightLeg
    {
      OFFSET 0 0 -42.358652
      CHANNELS 3 Zrotation Yrotation Xrotation
      JOINT RightFoot
      {
        OFFSET 0 0 -39.357303
        CHANNELS 3 Zrotation Yrotation Xrotation
      }
    }
  }
  JOINT SpineLow
  {
    OFFSET 0 0 4.719101
    CHANNELS 3 Zrotation Yrotation Xrotation
    JOINT SpineMid
    {
      OFFSET 0 0 12.899191
      CHANNELS 3 Zrotation Yrotation Xrotation
      JOINT Chest
      {
        OFFSET 0 0 12.899191
        CHANNELS 3 Zrotation Yrotation Xrotation
        JOINT LeftShoulder
        {
          OFFSET 7.550562 1.41573 9.438202
          CHANNELS 3 Zrotation Yrotation Xrotation
          JOINT LeftArm
          {
            OFFSET 9.155056 0 4.247191
            CHANNELS 3 Zrotation Yrotation Xrotation
            JOINT LeftForearm
            {
              OFFSET 0 0 25.771955
              CHANNELS 3 Zrotation Yrotation Xrotation
              JOINT LeftHand
              {
                OFFSET 0 0 25.197169
                CHANNELS 3 Zrotation Yrotation Xrotation
              }
            }
          }
        }
        JOINT RightShoulder
        {
          OFFSET -7.550562 1.41573 9.438202
          CHANNELS 3 Zrotation Yrotation Xrotation
          JOINT RightArm
          {
            OFFSET -9.155056 0 4.247191
            CHANNELS 3 Zrotation Yrotation Xrotation
            JOINT RightForearm
            {
              OFFSET 0 0 -25.771955
              CHANNELS 3 Zrotation Yrotation Xrotation
              JOINT RightHand
              {
                OFFSET 0 0 -25.197169
                CHANNELS 3 Zrotation Yrotation Xrotation
              }
            }
          }
        }
        JOINT Neck
        {
          OFFSET 0 0 15.101124
          CHANNELS 3 Zrotation Yrotation Xrotation
          JOINT Head
          {
            OFFSET 0 0 11.325843
            CHANNELS 3 Zrotation Yrotation Xrotation
            End Site
            {
              OFFSET 0 0 14.157303
            }
          }
        }
      }
    }
  }
}
MOTION
Frames: 7
Frame Time: 0.0
0.0  89.887642  0.0  12.200154  36.655388  -83.548257  23.015019  -22.786866  10.932787  5.444058  11.43201  26.250716  -8.181397  2.485399  -0.975063  -31.344423  17.452303  -49.655379  3.838371  6.219502  56.758483  4.226482  3.959229  0.879642  0.570114  -0.856731  1.477149  1.505945  -2.375461  4.018771  1.505946  -2.375461  4.018771  -18.163281  23.1739  2.08334  124.454059  49.895974  -157.407982  -13.739664  1.222041  80.272216  58.95443  -6.046021  20.576011  -7.555307  5.405182  2.743682  -0.204446  62.115133  -27.492499  -36.999946  -11.587859  -81.186923  58.429499  -14.342357  -9.07849  -36.695345  1.392308  -12.486485  -27.506052  1.80424  -9.320947  
0.0  89.887642  0.0  12.103188  36.642497  -83.513095  21.208134  -22.378598  11.262103  7.387225  11.64216  27.041957  -8.814377  2.49753  -1.102888  -31.417736  17.56857  -50.310607  3.798856  6.482475  57.127117  4.372058  3.909995  0.784538  0.62178  -0.846911  1.452205  1.64865  -2.351154  3.948906  1.64865  -2.351154  3.948907  -17.996179  23.441045  2.632094  124.510943  49.663694  -157.999029  -13.818416  2.125281  80.793184  58.925727  -5.860263  20.57749  -7.575168  5.344426  3.318565  -0.514637  60.839524  -27.450338  -37.138599  -11.603275  -81.577097  58.553272  -14.996634  -8.802175  -36.933641  1.34352  -12.249371  -27.685935  1.758034  -9.145311  
0.0  89.887642  0.0  11.929481  36.159415  -83.364959  22.304554  -21.800297  10.849757  6.220273  11.836295  26.95028  -8.688994  2.398593  -0.989457  -31.266491  17.458725  -51.182129  3.793695  6.841429  57.46807  4.574438  3.874931  0.716088  0.732663  -0.825142  1.413268  1.954376  -2.29714  3.839036  1.954376  -2.297139  3.839036  -17.810843  23.492782  3.063733  124.998839  49.208481  -158.236921  -13.59973  2.83971  81.22568  58.996701  -5.612946  20.596121  -7.634786  5.153514  3.872882  -0.682084  59.683543  -27.419102  -37.270909  -11.616502  -81.908914  58.716195  -15.495022  -8.774338  -37.141878  1.256456  -11.973951  -27.844036  1.679836  -8.943198  
0.0  89.887642  0.0  11.833086  35.439127  -83.070057  24.231903  -21.169004  9.936486  4.205444  12.290763  26.916759  -7.912631  2.183445  -0.795046  -30.874419  17.193511  -52.156933  4.09649  7.006672  57.828047  4.600619  3.87572  0.687277  0.877773  -0.772579  1.405242  2.354252  -2.161635  3.813709  2.354251  -2.161635  3.813709  -17.74108  23.294363  3.104487  125.993682  48.637406  -158.097482  -12.847352  3.35981  81.638826  58.903529  -5.201113  20.593605  -7.868993  4.840173  4.11216  -0.552921  58.616081  -27.224531  -37.251546  -11.670341  -82.282776  58.904893  -15.755799  -8.802061  -37.365508  0.996511  -11.7867  -28.017214  1.476909  -8.818271  
0.0  89.887642  0.0  11.815118  34.699393  -82.650735  25.566057  -20.657854  8.759348  3.135881  12.732816  27.559775  -7.38166  1.985698  -0.714045  -30.7031  16.766535  -53.189434  4.699029  7.062056  58.061845  4.563823  3.85437  0.665075  0.995276  -0.708903  1.341472  2.680947  -1.99186  3.6379  2.680947  -1.99186  3.6379  -17.352221  23.144531  3.404872  127.059513  48.160149  -157.911032  -12.164382  3.438354  82.634705  58.2509  -3.857276  20.739145  -8.048243  4.642951  4.596391  -0.100645  57.602707  -26.776187  -37.253961  -11.684343  -82.677746  59.091804  -15.90116  -8.987825  -37.49026  0.841265  -11.510021  -28.11378  1.345261  -8.619526  
0.0  89.887642  0.0  11.803313  34.164901  -82.158136  26.508756  -20.202471  7.896861  2.603995  12.894016  28.360342  -7.298188  1.815584  -0.984195  -30.671305  16.068837  -54.094698  5.450938  7.256133  58.199122  4.592094  3.832587  0.626434  1.075675  -0.613895  1.344901  2.905682  -1.736853  3.64878  2.905682  -1.736854  3.64878  -17.092688  22.634536  3.334704  127.581927  47.903082  -158.007886  -11.653167  4.166702  82.970193  58.571215  -2.844309  21.384185  -8.162963  4.246416  4.517774  0.611309  56.607142  -25.962489  -37.26851  -11.64924  -83.131018  59.317322  -15.977822  -9.197861  -37.600329  0.355856  -11.342684  -28.205618  0.971183  -8.523705  
0.0  89.887642  0.0  11.697844  33.808364  -81.840611  26.40785  -19.771307  7.379652  3.07692  12.806012  29.2372  -7.45368  1.742787  -1.29789  -30.945514  15.29552  -54.88784  6.254704  7.417996  58.294899  4.715958  3.786175  0.587628  1.106339  -0.548515  1.382081  2.992098  -1.561598  3.752419  2.992098  -1.561598  3.752419  -16.858753  22.140249  3.201917  127.79732  47.644388  -158.266646  -11.504787  4.129253  83.139754  58.7601  -1.860914  22.226475  -8.127087  4.021418  4.366941  1.450109  55.591718  -25.018663  -37.391967  -11.465287  -83.593384  59.570779  -16.00692  -9.39581  -37.6199  -0.13609  -11.290809  -28.22933  0.597571  -8.515141  
